<mxfile host="app.diagrams.net" agent="Mozilla/5.0 (Windows NT 10.0; Win64; x64; rv:144.0) Gecko/20100101 Firefox/144.0" version="28.2.7">
  <diagram id="aurelion_flow_v2" name="Diagrama de Flujo Vertical - Proyecto Aurelion">
    <mxGraphModel grid="1" page="0" gridSize="10" guides="1" tooltips="1" connect="1" arrows="1" fold="1" pageScale="1" pageWidth="827" pageHeight="1169" math="0" shadow="0">
      <root>
        <mxCell id="0" />
        <mxCell id="1" parent="0" />
        <mxCell id="n1" value="Inicio" style="ellipse;fillColor=light-dark(#60A917,#446E2C);strokeColor=#2D7600;labelBackgroundColor=none;fontColor=default;fontStyle=1" vertex="1" parent="1">
          <mxGeometry x="300" y="10" width="220" height="60" as="geometry" />
        </mxCell>
        <mxCell id="n2" value="&lt;font face=&quot;Helvetica&quot;&gt;Cargar archivos Excel (.xlsx)&lt;/font&gt;" style="rounded=1;whiteSpace=wrap;html=1;fillColor=#dae8fc;strokeColor=#6c8ebf;" vertex="1" parent="1">
          <mxGeometry x="300" y="140" width="220" height="60" as="geometry" />
        </mxCell>
        <mxCell id="n3" value="Análisis Exploratorio de Datos (EDA)" style="rounded=1;whiteSpace=wrap;html=1;fillColor=#dae8fc;strokeColor=#6c8ebf;" vertex="1" parent="1">
          <mxGeometry x="300" y="240" width="220" height="60" as="geometry" />
        </mxCell>
        <mxCell id="n4" value="Limpieza y Validación de Datos" style="rounded=1;whiteSpace=wrap;html=1;fillColor=#dae8fc;strokeColor=#6c8ebf;" vertex="1" parent="1">
          <mxGeometry x="300" y="340" width="220" height="60" as="geometry" />
        </mxCell>
        <mxCell id="n5" value="¿Hay discrepancias en importes?" style="rhombus;whiteSpace=wrap;html=1;fillColor=#fff2cc;strokeColor=#d6b656;" vertex="1" parent="1">
          <mxGeometry x="300" y="440" width="220" height="60" as="geometry" />
        </mxCell>
        <mxCell id="n6" value="Reemplazar importes y registrar en log" style="rounded=1;whiteSpace=wrap;html=1;fillColor=#dae8fc;strokeColor=#6c8ebf;" vertex="1" parent="1">
          <mxGeometry x="100" y="540" width="220" height="60" as="geometry" />
        </mxCell>
        <mxCell id="n7" value="Continuar proceso" style="rounded=1;whiteSpace=wrap;html=1;fillColor=#dae8fc;strokeColor=#6c8ebf;" vertex="1" parent="1">
          <mxGeometry x="500" y="540" width="220" height="60" as="geometry" />
        </mxCell>
        <mxCell id="n8" value="Corrección de categorías" style="rounded=1;whiteSpace=wrap;html=1;fillColor=#dae8fc;strokeColor=#6c8ebf;" vertex="1" parent="1">
          <mxGeometry x="300" y="700" width="220" height="60" as="geometry" />
        </mxCell>
        <mxCell id="n9" value="Integración de Datos (Merges)" style="rounded=1;whiteSpace=wrap;html=1;fillColor=#dae8fc;strokeColor=#6c8ebf;" vertex="1" parent="1">
          <mxGeometry x="300" y="800" width="220" height="60" as="geometry" />
        </mxCell>
        <mxCell id="n10" value="¿Hay id sin correspondencia?" style="rhombus;whiteSpace=wrap;html=1;fillColor=#fff2cc;strokeColor=#d6b656;" vertex="1" parent="1">
          <mxGeometry x="300" y="910" width="220" height="60" as="geometry" />
        </mxCell>
        <mxCell id="n11" value="Registrar inconsistencia en log" style="rounded=1;whiteSpace=wrap;html=1;fillColor=#dae8fc;strokeColor=#6c8ebf;" vertex="1" parent="1">
          <mxGeometry x="100" y="1000" width="220" height="60" as="geometry" />
        </mxCell>
        <mxCell id="n12" value="Validar lógica de negocio (fecha_alta &lt; fecha_venta)" style="rounded=1;whiteSpace=wrap;html=1;fillColor=#dae8fc;strokeColor=#6c8ebf;" vertex="1" parent="1">
          <mxGeometry x="300" y="1100" width="220" height="60" as="geometry" />
        </mxCell>
        <mxCell id="n13" value="Cálculo de KPIs y métricas" style="rounded=1;whiteSpace=wrap;html=1;fillColor=#dae8fc;strokeColor=#6c8ebf;" vertex="1" parent="1">
          <mxGeometry x="300" y="1200" width="220" height="60" as="geometry" />
        </mxCell>
        <mxCell id="n14" value="Generación de reportes y exportación CSV" style="rounded=1;whiteSpace=wrap;html=1;fillColor=#dae8fc;strokeColor=#6c8ebf;" vertex="1" parent="1">
          <mxGeometry x="300" y="1300" width="220" height="60" as="geometry" />
        </mxCell>
        <mxCell id="n15" value="Fin del proceso" style="ellipse;fillColor=#d5e8d4;strokeColor=#82b366;" vertex="1" parent="1">
          <mxGeometry x="300" y="1400" width="220" height="60" as="geometry" />
        </mxCell>
        <mxCell id="W0o5I-VcOFZfcAdrRX7K-2" value="&lt;font style=&quot;font-size: 24px;&quot; face=&quot;Times New Roman&quot;&gt;&lt;b&gt;&lt;i&gt;Proceso del Proyecto Aurelion&lt;/i&gt;&lt;/b&gt;&lt;/font&gt;" style="text;strokeColor=none;fillColor=none;html=1;align=center;verticalAlign=middle;whiteSpace=wrap;rounded=0;fontSize=16;" vertex="1" parent="1">
          <mxGeometry x="225" y="-130" width="390" height="100" as="geometry" />
        </mxCell>
        <mxCell id="W0o5I-VcOFZfcAdrRX7K-4" value="" style="endArrow=classic;html=1;rounded=0;fontSize=12;startSize=8;endSize=8;curved=1;exitX=0.5;exitY=1;exitDx=0;exitDy=0;entryX=0.5;entryY=0;entryDx=0;entryDy=0;" edge="1" parent="1" source="n1" target="n2">
          <mxGeometry width="50" height="50" relative="1" as="geometry">
            <mxPoint x="640" y="250" as="sourcePoint" />
            <mxPoint x="690" y="200" as="targetPoint" />
          </mxGeometry>
        </mxCell>
        <mxCell id="W0o5I-VcOFZfcAdrRX7K-5" value="" style="endArrow=classic;html=1;rounded=0;fontSize=12;startSize=8;endSize=8;curved=1;exitX=0.5;exitY=1;exitDx=0;exitDy=0;entryX=0.5;entryY=0;entryDx=0;entryDy=0;" edge="1" parent="1" source="n2" target="n3">
          <mxGeometry width="50" height="50" relative="1" as="geometry">
            <mxPoint x="640" y="250" as="sourcePoint" />
            <mxPoint x="690" y="200" as="targetPoint" />
          </mxGeometry>
        </mxCell>
        <mxCell id="W0o5I-VcOFZfcAdrRX7K-6" value="" style="endArrow=classic;html=1;rounded=0;fontSize=12;startSize=8;endSize=8;curved=1;entryX=0.5;entryY=0;entryDx=0;entryDy=0;exitX=0.5;exitY=1;exitDx=0;exitDy=0;" edge="1" parent="1" source="n3" target="n4">
          <mxGeometry width="50" height="50" relative="1" as="geometry">
            <mxPoint x="420" y="300" as="sourcePoint" />
            <mxPoint x="470" y="250" as="targetPoint" />
            <Array as="points" />
          </mxGeometry>
        </mxCell>
        <mxCell id="W0o5I-VcOFZfcAdrRX7K-7" value="" style="endArrow=classic;html=1;rounded=0;fontSize=12;startSize=8;endSize=8;curved=1;exitX=0.5;exitY=1;exitDx=0;exitDy=0;entryX=0.5;entryY=0;entryDx=0;entryDy=0;" edge="1" parent="1" source="n4" target="n5">
          <mxGeometry width="50" height="50" relative="1" as="geometry">
            <mxPoint x="570" y="430" as="sourcePoint" />
            <mxPoint x="620" y="380" as="targetPoint" />
          </mxGeometry>
        </mxCell>
        <mxCell id="W0o5I-VcOFZfcAdrRX7K-10" value="" style="endArrow=classic;html=1;rounded=0;fontSize=12;startSize=8;endSize=8;curved=1;exitX=0;exitY=0.5;exitDx=0;exitDy=0;entryX=0.5;entryY=0;entryDx=0;entryDy=0;" edge="1" parent="1" source="n5" target="n6">
          <mxGeometry relative="1" as="geometry">
            <mxPoint x="140" y="400" as="sourcePoint" />
            <mxPoint x="240" y="400" as="targetPoint" />
          </mxGeometry>
        </mxCell>
        <mxCell id="W0o5I-VcOFZfcAdrRX7K-11" value="SÍ" style="edgeLabel;resizable=0;html=1;;align=center;verticalAlign=middle;" connectable="0" vertex="1" parent="W0o5I-VcOFZfcAdrRX7K-10">
          <mxGeometry relative="1" as="geometry" />
        </mxCell>
        <mxCell id="W0o5I-VcOFZfcAdrRX7K-18" value="No" style="endArrow=classic;html=1;rounded=0;fontSize=12;startSize=8;endSize=8;curved=1;exitX=1;exitY=0.5;exitDx=0;exitDy=0;entryX=0.5;entryY=0;entryDx=0;entryDy=0;" edge="1" parent="1" source="n5" target="n7">
          <mxGeometry relative="1" as="geometry">
            <mxPoint x="470" y="480" as="sourcePoint" />
            <mxPoint x="570" y="480" as="targetPoint" />
          </mxGeometry>
        </mxCell>
        <mxCell id="W0o5I-VcOFZfcAdrRX7K-19" value="NO" style="edgeLabel;resizable=0;html=1;;align=center;verticalAlign=middle;" connectable="0" vertex="1" parent="W0o5I-VcOFZfcAdrRX7K-18">
          <mxGeometry relative="1" as="geometry" />
        </mxCell>
        <mxCell id="W0o5I-VcOFZfcAdrRX7K-24" value="" style="curved=1;endArrow=classic;html=1;rounded=0;fontSize=12;startSize=8;endSize=8;exitX=0.25;exitY=1;exitDx=0;exitDy=0;" edge="1" parent="1" source="n6">
          <mxGeometry width="50" height="50" relative="1" as="geometry">
            <mxPoint x="250" y="770" as="sourcePoint" />
            <mxPoint x="300" y="720" as="targetPoint" />
            <Array as="points">
              <mxPoint x="250" y="730" />
            </Array>
          </mxGeometry>
        </mxCell>
        <mxCell id="W0o5I-VcOFZfcAdrRX7K-25" value="" style="curved=1;endArrow=classic;html=1;rounded=0;fontSize=12;startSize=8;endSize=8;exitX=0.75;exitY=1;exitDx=0;exitDy=0;entryX=1;entryY=0.5;entryDx=0;entryDy=0;" edge="1" parent="1" source="n7" target="n8">
          <mxGeometry width="50" height="50" relative="1" as="geometry">
            <mxPoint x="510" y="630" as="sourcePoint" />
            <mxPoint x="655" y="750" as="targetPoint" />
            <Array as="points">
              <mxPoint x="605" y="760" />
            </Array>
          </mxGeometry>
        </mxCell>
        <mxCell id="W0o5I-VcOFZfcAdrRX7K-26" value="" style="endArrow=classic;html=1;rounded=0;fontSize=12;startSize=8;endSize=8;curved=1;exitX=0.5;exitY=1;exitDx=0;exitDy=0;entryX=0.5;entryY=0;entryDx=0;entryDy=0;" edge="1" parent="1" source="n9" target="n10">
          <mxGeometry width="50" height="50" relative="1" as="geometry">
            <mxPoint x="585" y="910" as="sourcePoint" />
            <mxPoint x="635" y="860" as="targetPoint" />
          </mxGeometry>
        </mxCell>
        <mxCell id="W0o5I-VcOFZfcAdrRX7K-27" value="" style="endArrow=classic;html=1;rounded=0;fontSize=12;startSize=8;endSize=8;curved=1;entryX=0.5;entryY=0;entryDx=0;entryDy=0;exitX=0;exitY=0.5;exitDx=0;exitDy=0;" edge="1" parent="1" source="n10" target="n11">
          <mxGeometry relative="1" as="geometry">
            <mxPoint x="120" y="930" as="sourcePoint" />
            <mxPoint x="220" y="930" as="targetPoint" />
          </mxGeometry>
        </mxCell>
        <mxCell id="W0o5I-VcOFZfcAdrRX7K-28" value="SÍ" style="edgeLabel;resizable=0;html=1;;align=center;verticalAlign=middle;" connectable="0" vertex="1" parent="W0o5I-VcOFZfcAdrRX7K-27">
          <mxGeometry relative="1" as="geometry" />
        </mxCell>
        <mxCell id="W0o5I-VcOFZfcAdrRX7K-29" value="" style="endArrow=classic;html=1;rounded=0;fontSize=12;startSize=8;endSize=8;curved=1;exitX=1;exitY=0.5;exitDx=0;exitDy=0;entryX=0.75;entryY=0;entryDx=0;entryDy=0;" edge="1" parent="1" source="n10" target="n12">
          <mxGeometry relative="1" as="geometry">
            <mxPoint x="480" y="990" as="sourcePoint" />
            <mxPoint x="580" y="990" as="targetPoint" />
          </mxGeometry>
        </mxCell>
        <mxCell id="W0o5I-VcOFZfcAdrRX7K-30" value="NO" style="edgeLabel;resizable=0;html=1;;align=center;verticalAlign=middle;" connectable="0" vertex="1" parent="W0o5I-VcOFZfcAdrRX7K-29">
          <mxGeometry relative="1" as="geometry" />
        </mxCell>
        <mxCell id="W0o5I-VcOFZfcAdrRX7K-31" value="" style="endArrow=classic;html=1;rounded=0;fontSize=12;startSize=8;endSize=8;curved=1;entryX=0.5;entryY=0;entryDx=0;entryDy=0;exitX=0.5;exitY=1;exitDx=0;exitDy=0;" edge="1" parent="1" source="n12" target="n13">
          <mxGeometry width="50" height="50" relative="1" as="geometry">
            <mxPoint x="170" y="1200" as="sourcePoint" />
            <mxPoint x="220" y="1150" as="targetPoint" />
          </mxGeometry>
        </mxCell>
        <mxCell id="W0o5I-VcOFZfcAdrRX7K-32" value="" style="endArrow=classic;html=1;rounded=0;fontSize=12;startSize=8;endSize=8;curved=1;entryX=0.5;entryY=0;entryDx=0;entryDy=0;exitX=0.5;exitY=1;exitDx=0;exitDy=0;" edge="1" parent="1">
          <mxGeometry width="50" height="50" relative="1" as="geometry">
            <mxPoint x="409.5" y="1260" as="sourcePoint" />
            <mxPoint x="409.5" y="1300" as="targetPoint" />
          </mxGeometry>
        </mxCell>
        <mxCell id="W0o5I-VcOFZfcAdrRX7K-33" value="" style="endArrow=classic;html=1;rounded=0;fontSize=12;startSize=8;endSize=8;curved=1;entryX=0.5;entryY=0;entryDx=0;entryDy=0;exitX=0.5;exitY=1;exitDx=0;exitDy=0;" edge="1" parent="1">
          <mxGeometry width="50" height="50" relative="1" as="geometry">
            <mxPoint x="409.5" y="1360" as="sourcePoint" />
            <mxPoint x="409.5" y="1400" as="targetPoint" />
          </mxGeometry>
        </mxCell>
        <mxCell id="W0o5I-VcOFZfcAdrRX7K-34" value="" style="endArrow=classic;html=1;rounded=0;fontSize=12;startSize=8;endSize=8;curved=1;entryX=0;entryY=0.5;entryDx=0;entryDy=0;exitX=0.5;exitY=1;exitDx=0;exitDy=0;" edge="1" parent="1" source="n11" target="n12">
          <mxGeometry width="50" height="50" relative="1" as="geometry">
            <mxPoint x="185" y="1190" as="sourcePoint" />
            <mxPoint x="235" y="1140" as="targetPoint" />
          </mxGeometry>
        </mxCell>
        <mxCell id="W0o5I-VcOFZfcAdrRX7K-35" value="" style="endArrow=classic;html=1;rounded=0;fontSize=12;startSize=8;endSize=8;curved=1;entryX=0.5;entryY=0;entryDx=0;entryDy=0;exitX=0.5;exitY=1;exitDx=0;exitDy=0;" edge="1" parent="1" source="n8" target="n9">
          <mxGeometry width="50" height="50" relative="1" as="geometry">
            <mxPoint x="170" y="840" as="sourcePoint" />
            <mxPoint x="220" y="790" as="targetPoint" />
          </mxGeometry>
        </mxCell>
      </root>
    </mxGraphModel>
  </diagram>
</mxfile>
